<?xml version="1.0" standalone="no"?>
<!DOCTYPE svg PUBLIC "-//W3C//DTD SVG 20010904//EN"
 "http://www.w3.org/TR/2001/REC-SVG-20010904/DTD/svg10.dtd">
<svg version="1.0" xmlns="http://www.w3.org/2000/svg"
 width="3600.000000pt" height="3600.000000pt" viewBox="0 0 3600.000000 3600.000000"
 preserveAspectRatio="xMidYMid meet">
<metadata>
Created by potrace 1.11, written by Peter Selinger 2001-2013
</metadata>
<g transform="translate(0.000000,3600.000000) scale(0.100000,-0.100000)"
fill="#000000" stroke="none">
<path d="M1600 35989 c-211 -24 -399 -81 -605 -184 -194 -97 -311 -181 -465
-335 -152 -152 -237 -270 -333 -460 -105 -208 -162 -398 -186 -622 -15 -137
-15 -32639 0 -32776 24 -224 81 -414 186 -622 96 -190 181 -308 333 -460 152
-152 270 -237 460 -333 208 -105 398 -162 622 -186 137 -15 32639 -15 32776 0
224 24 414 81 622 186 190 96 308 181 460 333 152 152 237 270 333 460 105
208 162 398 186 622 15 137 15 32639 0 32776 -24 224 -81 414 -186 622 -96
190 -181 308 -333 460 -152 152 -270 237 -460 333 -208 105 -398 162 -622 186
-119 13 -32672 13 -32788 0z m6773 -11893 c50 -21 126 -95 192 -187 59 -83
528 -701 754 -994 616 -800 1137 -1365 1533 -1662 100 -75 304 -205 445 -283
440 -243 915 -344 1465 -311 360 22 606 69 1233 235 390 103 1009 206 1505
250 924 83 1796 44 2585 -115 1087 -218 1959 -664 2583 -1321 l92 -97 77 107
c301 418 622 667 1039 805 225 75 402 105 675 114 227 7 398 -6 679 -53 526
-88 967 -225 2056 -639 1058 -402 1428 -512 1881 -556 160 -16 751 -6 943 15
304 34 555 99 758 196 337 161 560 370 1173 1105 l274 328 17 -89 c16 -85 50
-314 62 -419 27 -236 25 -657 -5 -908 -97 -834 -483 -1602 -1060 -2113 -595
-526 -1285 -817 -2186 -920 -183 -21 -711 -25 -913 -6 -409 38 -785 110 -1210
232 -526 152 -1124 409 -1670 720 -699 397 -1454 965 -2079 1563 -84 81 -160
147 -169 147 -24 0 -8 -40 113 -290 83 -170 116 -249 120 -285 3 -27 10 -162
15 -300 6 -137 18 -315 26 -395 82 -788 337 -1441 783 -1998 136 -169 296
-334 524 -535 131 -116 139 -152 222 -932 48 -455 70 -627 111 -870 76 -454
198 -914 324 -1226 28 -67 50 -138 50 -156 0 -76 -147 -183 -343 -248 -237
-79 -419 -85 -554 -19 -67 32 -103 97 -103 186 0 92 34 144 140 216 25 16 59
44 75 62 l30 31 -1 122 c-3 276 -107 864 -219 1232 -73 239 -195 511 -301 670
-49 74 -171 206 -235 253 -31 23 -116 70 -191 105 -226 107 -371 200 -598 382
-374 300 -807 782 -1097 1221 -87 132 -201 341 -231 424 l-13 35 -32 -37 c-81
-91 -311 -524 -400 -753 -256 -656 -303 -1172 -148 -1605 36 -100 41 -211 15
-301 -17 -55 -69 -165 -109 -229 -44 -70 -165 -300 -211 -402 -47 -102 -144
-372 -274 -753 -81 -239 -104 -300 -165 -435 -126 -281 -304 -455 -516 -505
-113 -26 -313 -17 -446 20 l-51 15 -16 68 c-36 160 -30 242 20 302 34 40 91
73 243 141 l125 55 53 155 c219 634 277 815 347 1097 99 394 125 673 79 857
-16 65 -49 119 -207 334 -283 384 -516 882 -636 1361 -22 87 -83 356 -126 560
-43 206 -65 402 -71 645 -9 374 22 626 133 1070 11 45 -99 -184 -132 -273 -62
-170 -118 -431 -143 -664 -27 -247 -9 -672 41 -951 11 -65 19 -119 17 -121 -2
-2 -36 -24 -76 -49 -201 -129 -379 -187 -718 -236 -393 -57 -835 -76 -1636
-68 l-606 6 -112 -29 c-163 -43 -353 -132 -457 -215 l-27 -22 16 -109 c32
-209 40 -360 34 -674 -13 -661 -112 -1435 -311 -2430 -90 -451 -88 -444 -132
-497 -83 -101 -238 -207 -357 -245 -156 -49 -333 13 -445 157 l-35 46 12 67
c19 106 51 161 146 249 77 72 86 84 104 143 58 195 72 342 78 815 6 507 -13
929 -72 1557 -10 101 -22 172 -34 200 -33 77 -150 442 -181 563 -16 65 -32
143 -35 174 l-6 56 59 42 c135 97 327 300 462 489 173 242 344 575 444 863 49
140 111 360 103 367 -2 2 -21 -40 -42 -94 -174 -440 -469 -910 -789 -1256
-147 -158 -316 -299 -526 -437 -313 -206 -1226 -788 -1600 -1020 l-356 -221
-38 -67 c-100 -172 -187 -332 -281 -511 l-102 -196 -7 -148 c-21 -452 -126
-830 -277 -999 -104 -117 -238 -150 -397 -98 -40 13 -75 28 -78 33 -12 20 -45
404 -45 533 -1 167 10 244 56 390 34 110 140 336 211 450 20 33 72 131 115
218 185 371 337 603 638 972 58 72 118 146 132 165 15 19 77 86 138 149 61 63
163 177 227 255 142 174 414 531 414 545 0 5 -57 58 -127 118 -448 379 -1057
985 -1439 1428 -406 473 -739 963 -896 1322 l-53 122 -50 21 c-219 89 -463
110 -1045 89 -540 -19 -968 -19 -1035 0 -103 30 -323 204 -431 342 -56 72 -84
145 -84 215 0 140 59 190 564 473 321 181 492 305 656 477 182 190 262 307
420 609 109 209 199 335 344 481 73 72 183 170 248 218 89 66 119 94 127 119
20 63 31 156 56 472 57 734 118 1020 236 1119 35 29 81 34 132 12z"/>
</g>
</svg>
