<svg version="1" xmlns="http://www.w3.org/2000/svg" width="3733.333" height="3733.333" viewBox="0 0 2800.000000 2800.000000"><path d="M323 1.1c-69.8 5.6-137.3 32.4-192.5 76.5-14.1 11.3-41.6 38.8-52.9 52.9-44.8 56-71 122.8-76.6 194.9-1.4 17.8-1.4 2131.4 0 2149.2 5.6 72.1 31.8 138.9 76.6 194.9 11.3 14.1 38.8 41.6 52.9 52.9 56 44.8 122.8 71 194.9 76.6 17.8 1.4 2131.4 1.4 2149.2 0 72.1-5.6 138.9-31.8 194.9-76.6 14.1-11.3 41.6-38.8 52.9-52.9 44.8-56 71-122.8 76.6-194.9 1.4-17.8 1.4-2131.4 0-2149.2-5.6-72.1-31.8-138.9-76.6-194.9-11.3-14.1-38.8-41.6-52.9-52.9-56-44.8-122.8-71-194.9-76.6-16-1.2-2136-1.1-2151.6.1zm117.4 790.8c4 2.5 12.2 11.3 16.8 18 3.1 4.5 56 74 76.9 101.1 35.1 45.5 70.9 87.7 97.8 115.2 29.1 29.9 49.3 46.8 75.6 63.3 45.9 28.9 83.4 41.6 131.3 44.5 37.7 2.2 85.4-3.6 131.7-16 47.1-12.6 69-17.4 107.1-23.5 103-16.4 205.8-17.6 298.9-3.4 59.5 9.1 119.5 26.9 167 49.5 45.8 21.8 92.6 55.2 122.8 87.9 4.9 5.2 9.2 9.5 9.6 9.5.3 0 3.8-4.4 7.6-9.8 38.8-54.7 86-83.3 149.5-90.6 23.5-2.7 57.4-1.7 82.7 2.5 59 9.7 99 22 216.8 66.7 69.2 26.2 90.2 33.4 125.7 43.1 20.5 5.6 42 9.6 60.7 11.2 16.1 1.5 70.4.5 90.1-1.6 52.9-5.5 88.7-19.8 120.5-48.3 19.6-17.5 35.1-34.6 77-84.9l25-29.9.8 3.5c2 9 5.8 34 7.4 48.1 2 18.8 2.3 61.3.5 80.5-7.3 76.2-34.5 141.2-81.5 195.1-90.7 103.8-245.7 143.9-412.9 106.8-91.7-20.3-183.3-61.3-273.2-122.1-53-35.9-95.1-70-149.7-121.2-8.6-8.1-12.4-11-13.1-10.3-.8.8 2.4 8.3 11 25.9 6.6 13.6 12.3 26.6 12.6 28.8.3 2.2 1 15.2 1.6 29 1.3 30.4 3.2 50.4 7.1 73.5 11 65.2 34.1 118 73.9 168.6 8.7 11.2 36.8 40 52.2 53.7 10.1 9 11.6 12 14.8 30 2.6 15.2 3.4 21.2 8 66.2 9.7 94.2 22.2 153.7 43.3 206.5 5.3 13.4 5.7 16.1 3.3 20.9-4.7 9.1-30.6 21.3-52.7 25-13.9 2.3-29.6.8-37-3.6-6.6-3.9-10.6-14.9-8.7-24 1.1-5 6.4-11.1 15.3-17.3 2.7-1.9 6-5.1 7.3-7 2.3-3.3 2.4-4 1.8-14.2-1.5-25.9-8.8-71-16.1-99.8-12.3-48.1-28.1-82.5-47.6-103.4-9.7-10.4-14.2-13.4-35.7-24.1-28.8-14.4-51.8-31-81.7-59.1-38.6-36.2-82.1-91.5-99.6-126.5-2.8-5.7-5.7-11.9-6.4-13.8-.6-2-1.6-3.6-2.1-3.6-1.3 0-9.6 12.4-17.7 26.5-19.1 33.4-36.6 78.7-43.6 113-7.4 36.2-6.3 72.4 2.9 95.4 4.2 10.4 5.5 19.1 4 27.3-1.6 9.1-4.4 15.6-14.3 32.9-19.5 34.2-22.7 42-49.8 121.1-10.7 31.3-17.8 46.5-28.6 60.5-9.3 12.1-21.7 20.6-35.8 24.3-6.2 1.6-23.8 2.2-31 1-11-1.7-18.7-3.9-19.5-5.5-1.3-2.4-4-18.3-4-23.4 0-2.5 1-6.3 2.5-9.2 3.1-6.2 8.6-9.9 25.9-17.5l13-5.6 4.2-12.4c2.3-6.8 8.7-25.9 14.3-42.4 5.6-16.5 12.2-36.8 14.6-45.2 15.6-53.6 20.4-92.2 14.1-112.6-1.7-5.7-3.7-8.9-16.1-25.7-32.7-44.3-56.1-93.9-68.4-145-14.3-59.2-17.9-81.6-18.8-116.7-.9-34.9 2.2-64.2 10.1-95.1 1.8-7.3 3.2-13.2 3-13.2-.2 0-2.1 3.5-4.3 7.7-11.5 23.1-20 56.2-23.2 90.7-2.3 24.6-.2 66.8 4.5 91.6.9 4.5 1.6 9 1.6 9.9 0 1.8-11.1 9.3-21.6 14.6-24 12.1-63.1 18.7-128.9 21.6-16.8.7-48.5 1-89.4.7-59.8-.5-63.7-.5-71 1.3-12 3-19.9 5.8-28.6 10.1-8.3 4-23.5 13.6-23.5 14.7 0 .3 1 6.7 2.1 14.1 2.7 17.3 3.7 65 2 92.2-4.2 65-13.9 133.6-31.2 218.8-4 19.5-7.4 36.8-7.7 38.4-.6 3.7-14.2 17.6-22.9 23.5-21.9 14.7-42.2 13.4-58.8-3.7-3.1-3.1-5.9-6.8-6.2-8.2-.9-3.7 3.2-18.4 6.3-22.8 1.5-2 6-6.6 10-10.2 6.7-6.1 7.4-7 9.2-13.5 6.5-22.6 7.7-37.2 7.7-93 0-50.8-1.2-75.4-6-130.1l-2.5-27.6-6.9-19.6c-9.5-27.2-17-54.7-17.1-62.8 0-2.6.9-3.7 6.8-8 8.9-6.5 25.7-23.4 35.8-36 25.6-31.9 48.6-77.2 60.4-119.2 1.7-6.2 3-11.8 2.8-12.4-.2-.6-1.7 2.3-3.2 6.3-5 12.9-19.9 42.9-28.8 57.9-26.3 44.3-58.7 81-92.3 104.5-4.9 3.4-21.4 14.1-36.5 23.7-15.1 9.7-46.4 29.6-69.6 44.4-23.1 14.8-55 35-71 44.8l-29 17.9-4.8 8.6c-13.4 23.6-18.6 33.1-27.6 50.6l-9.7 19-.7 15.5c-1.8 43.7-12.9 82.4-28.4 99.1-7.6 8.3-14.3 11.4-24.7 11.4-9.8 0-21.1-3.5-22.5-6.9-1.5-3.9-4.4-39.9-4.3-54.1 0-7.7.6-16.9 1.2-20.5 3-16.7 13.2-41.3 25.7-62 3.2-5.2 8.4-15.1 11.7-22 11-22.9 25.2-46.5 40.7-67.5 13.7-18.5 40.3-50.9 48.9-59.5 4.6-4.6 14.3-15.4 21.4-24 15.3-18.4 42.9-54.7 43.1-56.6 0-.7-5.7-6.3-12.9-12.4-58.9-50.5-124.9-118.1-165.6-169.5-29.7-37.6-54.7-76.6-67.4-105.4-5.5-12.6-6-13-18.8-17-9.8-3-22-4.9-40-6.2-15.6-1.1-39.2-.6-107.2 2.1-25.9 1.1-45.4.2-54-2.5-3.1-.9-9.1-4.5-16-9.7-19.1-14.3-28.8-25.5-32.5-37.7-2.6-8.3-2.5-10.7.6-16.9 4.4-8.9 12.4-14.6 51.9-36.7 25-14.1 37.4-22 50.6-32.7 17.9-14.4 38.7-38.9 48.7-57.3 2.7-5 8-14.6 11.7-21.5 17.6-32.3 32.4-49.4 61-70.3 6.6-4.8 9.4-7.4 10.2-9.9 1.9-5.4 3.2-16.4 5.8-49.6 3.8-48.1 6.7-69.6 12.1-88.6 3-10.5 4.3-13.3 8.7-18.2 5.7-6.6 11.3-7.3 19.1-2.5z"/></svg>